<svg width="817" height="46" viewBox="0 0 817 46" fill="none" xmlns="http://www.w3.org/2000/svg">
<path d="M7.66524 36L0.075243 11.16H2.09924L8.67724 32.688L15.2552 11.16H17.2792L23.8572 32.688L30.4812 11.16H32.4592L24.8692 36H22.8452L16.2672 14.426L9.68924 36H7.66524ZM53.2117 36V22.844C53.2117 21.0653 53.0277 19.532 52.6597 18.244C52.307 16.9407 51.778 15.8673 51.0727 15.024C50.3674 14.1653 49.5087 13.529 48.4967 13.115C47.5 12.701 46.3577 12.494 45.0697 12.494C43.5517 12.494 42.256 12.7623 41.1827 13.299C40.1247 13.8203 39.266 14.541 38.6067 15.461C37.9474 16.381 37.4644 17.439 37.1577 18.635C36.851 19.831 36.6977 21.096 36.6977 22.43L34.9037 22.476C34.9037 19.6393 35.3714 17.3547 36.3067 15.622C37.242 13.874 38.4764 12.6013 40.0097 11.804C41.5584 11.0067 43.245 10.608 45.0697 10.608C46.327 10.608 47.477 10.7843 48.5197 11.137C49.5777 11.4897 50.513 12.0033 51.3257 12.678C52.1537 13.3373 52.8514 14.15 53.4187 15.116C53.986 16.082 54.4154 17.186 54.7067 18.428C54.998 19.6547 55.1437 21.004 55.1437 22.476V36H53.2117ZM34.7657 36V2.88H36.5597V22.43H36.6977V36H34.7657ZM69.2769 36.69C66.9309 36.69 64.9069 36.161 63.2049 35.103C61.5182 34.045 60.2149 32.5347 59.2949 30.572C58.3749 28.6093 57.9149 26.2787 57.9149 23.58C57.9149 20.866 58.3672 18.5277 59.2719 16.565C60.1919 14.6023 61.4952 13.0997 63.1819 12.057C64.8839 10.999 66.9155 10.47 69.2769 10.47C71.6535 10.47 73.6852 11.0067 75.3719 12.08C77.0585 13.1533 78.3465 14.7097 79.2359 16.749C80.1405 18.7883 80.5929 21.2493 80.5929 24.132H78.5229V23.488C78.4309 19.9153 77.5875 17.1783 75.9929 15.277C74.4135 13.3603 72.1749 12.402 69.2769 12.402C66.3329 12.402 64.0482 13.3833 62.4229 15.346C60.7975 17.2933 59.9849 20.038 59.9849 23.58C59.9849 27.122 60.7975 29.8743 62.4229 31.837C64.0482 33.7843 66.3329 34.758 69.2769 34.758C71.3315 34.758 73.1332 34.275 74.6819 33.309C76.2305 32.343 77.4649 30.9553 78.3849 29.146L79.9949 30.066C78.9829 32.182 77.5492 33.815 75.6939 34.965C73.8385 36.115 71.6995 36.69 69.2769 36.69ZM59.1569 24.132V22.2H79.3969V24.132H59.1569ZM83.824 36V11.16H85.618V17.094L85.02 16.312C85.2807 15.6373 85.6103 15.0087 86.009 14.426C86.4077 13.8433 86.7987 13.368 87.182 13C87.8567 12.3407 88.654 11.8423 89.574 11.505C90.5093 11.1523 91.4447 10.953 92.38 10.907C93.3153 10.8457 94.1433 10.93 94.864 11.16V13C93.8367 12.77 92.748 12.7317 91.598 12.885C90.448 13.023 89.3747 13.552 88.378 14.472C87.504 15.2847 86.883 16.22 86.515 17.278C86.1623 18.336 85.9477 19.4323 85.871 20.567C85.7943 21.6863 85.756 22.752 85.756 23.764V36H83.824ZM106.925 36.69C104.579 36.69 102.555 36.161 100.853 35.103C99.1663 34.045 97.863 32.5347 96.943 30.572C96.023 28.6093 95.563 26.2787 95.563 23.58C95.563 20.866 96.0153 18.5277 96.92 16.565C97.84 14.6023 99.1433 13.0997 100.83 12.057C102.532 10.999 104.564 10.47 106.925 10.47C109.302 10.47 111.333 11.0067 113.02 12.08C114.707 13.1533 115.995 14.7097 116.884 16.749C117.789 18.7883 118.241 21.2493 118.241 24.132H116.171V23.488C116.079 19.9153 115.236 17.1783 113.641 15.277C112.062 13.3603 109.823 12.402 106.925 12.402C103.981 12.402 101.696 13.3833 100.071 15.346C98.4456 17.2933 97.633 20.038 97.633 23.58C97.633 27.122 98.4456 29.8743 100.071 31.837C101.696 33.7843 103.981 34.758 106.925 34.758C108.98 34.758 110.781 34.275 112.33 33.309C113.879 32.343 115.113 30.9553 116.033 29.146L117.643 30.066C116.631 32.182 115.197 33.815 113.342 34.965C111.487 36.115 109.348 36.69 106.925 36.69ZM96.805 24.132V22.2H117.045V24.132H96.805ZM457.128 36L457.174 18.888C457.174 16.818 456.568 15.1927 455.357 14.012C454.145 12.816 452.65 12.218 450.872 12.218C449.89 12.218 448.894 12.4403 447.882 12.885C446.885 13.3297 446.042 14.081 445.352 15.139C444.677 16.197 444.34 17.646 444.34 19.486H442.638C442.561 17.6613 442.875 16.0743 443.581 14.725C444.301 13.3757 445.306 12.333 446.594 11.597C447.882 10.8457 449.354 10.47 451.01 10.47C453.356 10.47 455.288 11.206 456.806 12.678C458.339 14.15 459.106 16.174 459.106 18.75L459.06 36H457.128ZM427.642 36V11.16H429.436V16.22H429.574V36H427.642ZM442.408 36L442.454 19.21C442.454 17.0633 441.856 15.3613 440.66 14.104C439.479 12.8467 437.946 12.218 436.06 12.218C434.128 12.218 432.564 12.8773 431.368 14.196C430.172 15.5147 429.574 17.278 429.574 19.486L427.872 18.75C427.872 17.1553 428.232 15.737 428.953 14.495C429.673 13.2377 430.662 12.2563 431.92 11.551C433.192 10.8303 434.649 10.47 436.29 10.47C437.685 10.47 438.996 10.769 440.223 11.367C441.449 11.9497 442.438 12.862 443.19 14.104C443.956 15.346 444.34 16.9407 444.34 18.888L444.294 36H442.408ZM473.248 36.69C470.902 36.69 468.878 36.161 467.176 35.103C465.49 34.045 464.186 32.5347 463.266 30.572C462.346 28.6093 461.886 26.2787 461.886 23.58C461.886 20.866 462.339 18.5277 463.243 16.565C464.163 14.6023 465.467 13.0997 467.153 12.057C468.855 10.999 470.887 10.47 473.248 10.47C475.625 10.47 477.657 11.0067 479.343 12.08C481.03 13.1533 482.318 14.7097 483.207 16.749C484.112 18.7883 484.564 21.2493 484.564 24.132H482.494V23.488C482.402 19.9153 481.559 17.1783 479.964 15.277C478.385 13.3603 476.146 12.402 473.248 12.402C470.304 12.402 468.02 13.3833 466.394 15.346C464.769 17.2933 463.956 20.038 463.956 23.58C463.956 27.122 464.769 29.8743 466.394 31.837C468.02 33.7843 470.304 34.758 473.248 34.758C475.303 34.758 477.105 34.275 478.653 33.309C480.202 32.343 481.436 30.9553 482.356 29.146L483.966 30.066C482.954 32.182 481.521 33.815 479.665 34.965C477.81 36.115 475.671 36.69 473.248 36.69ZM463.128 24.132V22.2H483.368V24.132H463.128ZM497.778 36.69C495.432 36.69 493.408 36.161 491.706 35.103C490.019 34.045 488.716 32.5347 487.796 30.572C486.876 28.6093 486.416 26.2787 486.416 23.58C486.416 20.866 486.868 18.5277 487.773 16.565C488.693 14.6023 489.996 13.0997 491.683 12.057C493.385 10.999 495.416 10.47 497.778 10.47C500.154 10.47 502.186 11.0067 503.873 12.08C505.559 13.1533 506.847 14.7097 507.737 16.749C508.641 18.7883 509.094 21.2493 509.094 24.132H507.024V23.488C506.932 19.9153 506.088 17.1783 504.494 15.277C502.914 13.3603 500.676 12.402 497.778 12.402C494.834 12.402 492.549 13.3833 490.924 15.346C489.298 17.2933 488.486 20.038 488.486 23.58C488.486 27.122 489.298 29.8743 490.924 31.837C492.549 33.7843 494.834 34.758 497.778 34.758C499.832 34.758 501.634 34.275 503.183 33.309C504.731 32.343 505.966 30.9553 506.886 29.146L508.496 30.066C507.484 32.182 506.05 33.815 504.195 34.965C502.339 36.115 500.2 36.69 497.778 36.69ZM487.658 24.132V22.2H507.898V24.132H487.658ZM525.159 36C523.917 36.276 522.69 36.3757 521.479 36.299C520.267 36.2377 519.186 35.954 518.236 35.448C517.285 34.9267 516.572 34.1447 516.097 33.102C515.729 32.2893 515.522 31.469 515.476 30.641C515.43 29.7977 515.407 28.8393 515.407 27.766V4.26H517.339V27.766C517.339 28.8393 517.346 29.7057 517.362 30.365C517.392 31.0243 517.553 31.6453 517.845 32.228C518.397 33.332 519.271 34.0143 520.467 34.275C521.663 34.5203 523.227 34.482 525.159 34.16V36ZM509.565 13.092V11.16H525.159V13.092H509.565ZM536.976 36.644C534.17 36.644 531.84 36.0613 529.984 34.896C528.129 33.7153 526.979 32.09 526.534 30.02L528.512 29.652C528.926 31.1853 529.892 32.412 531.41 33.332C532.944 34.252 534.814 34.712 537.022 34.712C539.276 34.712 541.063 34.229 542.381 33.263C543.715 32.297 544.382 30.986 544.382 29.33C544.382 28.4253 544.183 27.6893 543.784 27.122C543.386 26.5393 542.604 26.0103 541.438 25.535C540.288 25.0597 538.586 24.5153 536.332 23.902C533.971 23.258 532.131 22.637 530.812 22.039C529.509 21.4257 528.589 20.7433 528.052 19.992C527.531 19.2253 527.27 18.29 527.27 17.186C527.27 15.8673 527.661 14.702 528.443 13.69C529.225 12.678 530.306 11.8883 531.686 11.321C533.066 10.7537 534.661 10.47 536.47 10.47C538.295 10.47 539.936 10.7767 541.392 11.39C542.864 11.988 544.045 12.8313 544.934 13.92C545.839 14.9933 546.36 16.2353 546.498 17.646L544.52 18.014C544.229 16.2813 543.34 14.9167 541.852 13.92C540.38 12.908 538.54 12.402 536.332 12.402C534.262 12.3713 532.568 12.793 531.249 13.667C529.946 14.541 529.294 15.6833 529.294 17.094C529.294 17.876 529.517 18.5507 529.961 19.118C530.406 19.67 531.18 20.176 532.284 20.636C533.388 21.096 534.922 21.5713 536.884 22.062C539.368 22.6907 541.3 23.327 542.68 23.971C544.076 24.615 545.049 25.3663 545.601 26.225C546.169 27.0837 546.452 28.1493 546.452 29.422C546.452 31.676 545.609 33.447 543.922 34.735C542.236 36.0077 539.92 36.644 536.976 36.644Z" fill="white"/>
<path d="M134.876 36L141.316 3.8H147.296L140.856 36H134.876ZM182.41 11.16C184.556 11.16 186.35 11.5893 187.792 12.448C189.233 13.3067 190.245 14.5793 190.828 16.266C191.41 17.922 191.456 19.9613 190.966 22.384L188.252 36H182.502L185.216 22.522C185.614 20.498 185.446 18.934 184.71 17.83C183.974 16.726 182.64 16.174 180.708 16.174C178.714 16.174 177.074 16.7567 175.786 17.922C174.528 19.0567 173.654 20.82 173.164 23.212L170.588 36H164.838L167.552 22.522C167.95 20.498 167.782 18.934 167.046 17.83C166.31 16.726 164.976 16.174 163.044 16.174C161.05 16.174 159.41 16.7567 158.122 17.922C156.864 19.0567 155.99 20.8353 155.5 23.258L152.924 36H147.174L152.05 11.436H157.524L156.19 18.198L155.224 16.22C156.358 14.472 157.769 13.1993 159.456 12.402C161.173 11.574 163.044 11.16 165.068 11.16C166.662 11.16 168.073 11.436 169.3 11.988C170.526 12.5093 171.508 13.322 172.244 14.426C173.01 15.4993 173.455 16.8333 173.578 18.428L170.818 17.83C172.075 15.622 173.685 13.966 175.648 12.862C177.641 11.7273 179.895 11.16 182.41 11.16ZM204.844 36.322C202.851 36.322 201.026 35.8927 199.37 35.034C197.745 34.1753 196.442 32.9487 195.46 31.354C194.51 29.7287 194.034 27.7813 194.034 25.512C194.034 23.4267 194.372 21.51 195.046 19.762C195.752 18.014 196.733 16.496 197.99 15.208C199.248 13.92 200.704 12.9233 202.36 12.218C204.047 11.5127 205.887 11.16 207.88 11.16C209.935 11.16 211.698 11.528 213.17 12.264C214.673 13 215.808 14.1193 216.574 15.622C217.341 17.094 217.694 18.934 217.632 21.142C217.571 24.178 217.019 26.846 215.976 29.146C214.934 31.4153 213.477 33.1787 211.606 34.436C209.736 35.6933 207.482 36.322 204.844 36.322ZM206.316 31.4C207.972 31.4 209.429 31.0167 210.686 30.25C211.944 29.4527 212.94 28.364 213.676 26.984C214.412 25.604 214.78 24.0093 214.78 22.2C214.78 20.2987 214.213 18.796 213.078 17.692C211.944 16.588 210.349 16.036 208.294 16.036C206.669 16.036 205.212 16.4347 203.924 17.232C202.667 17.9987 201.67 19.072 200.934 20.452C200.198 21.832 199.83 23.4267 199.83 25.236C199.83 27.1373 200.398 28.64 201.532 29.744C202.667 30.848 204.262 31.4 206.316 31.4ZM212.342 36L213.446 30.388L215.01 23.856L215.792 17.278L216.942 11.436H222.692L217.816 36H212.342ZM233.435 45.246C231.105 45.246 228.958 44.9547 226.995 44.372C225.033 43.82 223.346 42.992 221.935 41.888L224.925 37.564C225.876 38.392 227.133 39.0513 228.697 39.542C230.261 40.0633 231.963 40.324 233.803 40.324C236.502 40.324 238.541 39.726 239.921 38.53C241.301 37.3647 242.221 35.6013 242.681 33.24L243.693 28.18L245.211 22.982L246.131 17.416L247.281 11.436H252.755L248.615 32.274C247.695 36.8433 245.978 40.14 243.463 42.164C240.949 44.2187 237.606 45.246 233.435 45.246ZM234.861 34.896C232.745 34.896 230.859 34.4973 229.203 33.7C227.547 32.872 226.244 31.7067 225.293 30.204C224.343 28.6707 223.867 26.846 223.867 24.73C223.867 22.798 224.205 21.0193 224.879 19.394C225.585 17.738 226.551 16.2967 227.777 15.07C229.035 13.8433 230.507 12.8927 232.193 12.218C233.911 11.5127 235.781 11.16 237.805 11.16C239.584 11.16 241.225 11.482 242.727 12.126C244.23 12.7393 245.426 13.7513 246.315 15.162C247.205 16.542 247.619 18.3667 247.557 20.636C247.496 23.3347 246.959 25.7727 245.947 27.95C244.935 30.0967 243.494 31.7987 241.623 33.056C239.753 34.2827 237.499 34.896 234.861 34.896ZM236.149 30.02C237.805 30.02 239.262 29.6673 240.519 28.962C241.777 28.226 242.758 27.2293 243.463 25.972C244.199 24.684 244.567 23.2427 244.567 21.648C244.567 19.9 244 18.5353 242.865 17.554C241.731 16.542 240.151 16.036 238.127 16.036C236.471 16.036 235.015 16.404 233.757 17.14C232.5 17.8453 231.503 18.8267 230.767 20.084C230.031 21.3413 229.663 22.7827 229.663 24.408C229.663 26.156 230.231 27.536 231.365 28.548C232.531 29.5293 234.125 30.02 236.149 30.02ZM253.599 36L258.475 11.436H264.225L259.349 36H253.599ZM262.661 7.388C261.618 7.388 260.775 7.08133 260.131 6.468C259.518 5.824 259.211 5.05733 259.211 4.168C259.211 3.12533 259.564 2.25133 260.269 1.546C261.005 0.840666 261.956 0.487999 263.121 0.487999C264.133 0.487999 264.961 0.794666 265.605 1.408C266.249 1.99066 266.571 2.71133 266.571 3.57C266.571 4.70466 266.218 5.62466 265.513 6.33C264.808 7.03533 263.857 7.388 262.661 7.388ZM283.318 11.16C285.434 11.16 287.228 11.5893 288.7 12.448C290.172 13.3067 291.199 14.5793 291.782 16.266C292.395 17.922 292.456 19.9613 291.966 22.384L289.252 36H283.502L286.17 22.522C286.568 20.5287 286.384 18.98 285.618 17.876C284.851 16.7413 283.456 16.174 281.432 16.174C279.316 16.174 277.568 16.7567 276.188 17.922C274.808 19.0873 273.872 20.866 273.382 23.258L270.806 36H265.056L269.932 11.436H275.406L274.026 18.428L273.106 16.22C274.271 14.472 275.728 13.1993 277.476 12.402C279.254 11.574 281.202 11.16 283.318 11.16ZM305.791 36.322C303.798 36.322 301.973 35.8927 300.317 35.034C298.692 34.1753 297.388 32.9487 296.407 31.354C295.456 29.7287 294.981 27.7813 294.981 25.512C294.981 23.4267 295.318 21.51 295.993 19.762C296.698 18.014 297.68 16.496 298.937 15.208C300.194 13.92 301.651 12.9233 303.307 12.218C304.994 11.5127 306.834 11.16 308.827 11.16C310.882 11.16 312.645 11.528 314.117 12.264C315.62 13 316.754 14.1193 317.521 15.622C318.288 17.094 318.64 18.934 318.579 21.142C318.518 24.178 317.966 26.846 316.923 29.146C315.88 31.4153 314.424 33.1787 312.553 34.436C310.682 35.6933 308.428 36.322 305.791 36.322ZM307.263 31.4C308.919 31.4 310.376 31.0167 311.633 30.25C312.89 29.4527 313.887 28.364 314.623 26.984C315.359 25.604 315.727 24.0093 315.727 22.2C315.727 20.2987 315.16 18.796 314.025 17.692C312.89 16.588 311.296 16.036 309.241 16.036C307.616 16.036 306.159 16.4347 304.871 17.232C303.614 17.9987 302.617 19.072 301.881 20.452C301.145 21.832 300.777 23.4267 300.777 25.236C300.777 27.1373 301.344 28.64 302.479 29.744C303.614 30.848 305.208 31.4 307.263 31.4ZM313.289 36L314.393 30.388L315.957 23.856L316.739 17.278L317.889 11.436H323.639L318.763 36H313.289ZM333.646 36.322C332.051 36.322 330.671 35.9847 329.506 35.31C328.371 34.6047 327.543 33.6233 327.022 32.366C326.531 31.078 326.455 29.56 326.792 27.812L331.162 6.008H336.912L332.542 27.766C332.358 28.9007 332.481 29.8207 332.91 30.526C333.339 31.2313 334.152 31.584 335.348 31.584C335.9 31.584 336.452 31.5073 337.004 31.354C337.587 31.17 338.108 30.9247 338.568 30.618L339.58 34.85C338.721 35.402 337.771 35.7853 336.728 36C335.685 36.2147 334.658 36.322 333.646 36.322ZM325.136 16.22L326.056 11.62H342.386L341.466 16.22H325.136ZM342.102 36L346.978 11.436H352.728L347.852 36H342.102ZM351.164 7.388C350.121 7.388 349.278 7.08133 348.634 6.468C348.021 5.824 347.714 5.05733 347.714 4.168C347.714 3.12533 348.067 2.25133 348.772 1.546C349.508 0.840666 350.459 0.487999 351.624 0.487999C352.636 0.487999 353.464 0.794666 354.108 1.408C354.752 1.99066 355.074 2.71133 355.074 3.57C355.074 4.70466 354.721 5.62466 354.016 6.33C353.311 7.03533 352.36 7.388 351.164 7.388ZM365.703 36.322C363.311 36.322 361.21 35.8773 359.401 34.988C357.622 34.068 356.242 32.8107 355.261 31.216C354.28 29.5907 353.789 27.6893 353.789 25.512C353.789 22.752 354.418 20.2987 355.675 18.152C356.932 15.9747 358.65 14.2727 360.827 13.046C363.035 11.7887 365.55 11.16 368.371 11.16C370.794 11.16 372.894 11.6047 374.673 12.494C376.482 13.3527 377.878 14.5947 378.859 16.22C379.84 17.8147 380.331 19.716 380.331 21.924C380.331 24.6533 379.702 27.1067 378.445 29.284C377.188 31.4613 375.455 33.1787 373.247 34.436C371.07 35.6933 368.555 36.322 365.703 36.322ZM366.071 31.4C367.727 31.4 369.184 31.0167 370.441 30.25C371.698 29.4527 372.695 28.364 373.431 26.984C374.167 25.604 374.535 24.0093 374.535 22.2C374.535 20.2987 373.968 18.796 372.833 17.692C371.698 16.588 370.104 16.036 368.049 16.036C366.424 16.036 364.967 16.4347 363.679 17.232C362.422 17.9987 361.425 19.072 360.689 20.452C359.953 21.832 359.585 23.4267 359.585 25.236C359.585 27.168 360.152 28.686 361.287 29.79C362.422 30.8633 364.016 31.4 366.071 31.4ZM399.629 11.16C401.745 11.16 403.539 11.5893 405.011 12.448C406.483 13.3067 407.511 14.5793 408.093 16.266C408.707 17.922 408.768 19.9613 408.277 22.384L405.563 36H399.813L402.481 22.522C402.88 20.5287 402.696 18.98 401.929 17.876C401.163 16.7413 399.767 16.174 397.743 16.174C395.627 16.174 393.879 16.7567 392.499 17.922C391.119 19.0873 390.184 20.866 389.693 23.258L387.117 36H381.367L386.243 11.436H391.717L390.337 18.428L389.417 16.22C390.583 14.472 392.039 13.1993 393.787 12.402C395.566 11.574 397.513 11.16 399.629 11.16ZM565.922 36L586.852 3.8H592.786L600.79 36H594.856L588.14 6.882H590.532L572.316 36H565.922ZM574.11 28.548L576.64 23.856H593.982L594.764 28.548H574.11ZM602.539 36L609.347 1.868H615.097L608.289 36H602.539ZM623.932 45.246C621.602 45.246 619.455 44.9547 617.492 44.372C615.53 43.82 613.843 42.992 612.432 41.888L615.422 37.564C616.373 38.392 617.63 39.0513 619.194 39.542C620.758 40.0633 622.46 40.324 624.3 40.324C626.999 40.324 629.038 39.726 630.418 38.53C631.798 37.3647 632.718 35.6013 633.178 33.24L634.19 28.18L635.708 22.982L636.628 17.416L637.778 11.436H643.252L639.112 32.274C638.192 36.8433 636.475 40.14 633.96 42.164C631.446 44.2187 628.103 45.246 623.932 45.246ZM625.358 34.896C623.242 34.896 621.356 34.4973 619.7 33.7C618.044 32.872 616.741 31.7067 615.79 30.204C614.84 28.6707 614.364 26.846 614.364 24.73C614.364 22.798 614.702 21.0193 615.376 19.394C616.082 17.738 617.048 16.2967 618.274 15.07C619.532 13.8433 621.004 12.8927 622.69 12.218C624.408 11.5127 626.278 11.16 628.302 11.16C630.081 11.16 631.722 11.482 633.224 12.126C634.727 12.7393 635.923 13.7513 636.812 15.162C637.702 16.542 638.116 18.3667 638.054 20.636C637.993 23.3347 637.456 25.7727 636.444 27.95C635.432 30.0967 633.991 31.7987 632.12 33.056C630.25 34.2827 627.996 34.896 625.358 34.896ZM626.646 30.02C628.302 30.02 629.759 29.6673 631.016 28.962C632.274 28.226 633.255 27.2293 633.96 25.972C634.696 24.684 635.064 23.2427 635.064 21.648C635.064 19.9 634.497 18.5353 633.362 17.554C632.228 16.542 630.648 16.036 628.624 16.036C626.968 16.036 625.512 16.404 624.254 17.14C622.997 17.8453 622 18.8267 621.264 20.084C620.528 21.3413 620.16 22.7827 620.16 24.408C620.16 26.156 620.728 27.536 621.862 28.548C623.028 29.5293 624.622 30.02 626.646 30.02ZM656.24 36.322C653.848 36.322 651.747 35.8773 649.938 34.988C648.159 34.068 646.779 32.8107 645.798 31.216C644.816 29.5907 644.326 27.6893 644.326 25.512C644.326 22.752 644.954 20.2987 646.212 18.152C647.469 15.9747 649.186 14.2727 651.364 13.046C653.572 11.7887 656.086 11.16 658.908 11.16C661.33 11.16 663.431 11.6047 665.21 12.494C667.019 13.3527 668.414 14.5947 669.396 16.22C670.377 17.8147 670.868 19.716 670.868 21.924C670.868 24.6533 670.239 27.1067 668.982 29.284C667.724 31.4613 665.992 33.1787 663.784 34.436C661.606 35.6933 659.092 36.322 656.24 36.322ZM656.608 31.4C658.264 31.4 659.72 31.0167 660.978 30.25C662.235 29.4527 663.232 28.364 663.968 26.984C664.704 25.604 665.072 24.0093 665.072 22.2C665.072 20.2987 664.504 18.796 663.37 17.692C662.235 16.588 660.64 16.036 658.586 16.036C656.96 16.036 655.504 16.4347 654.216 17.232C652.958 17.9987 651.962 19.072 651.226 20.452C650.49 21.832 650.122 23.4267 650.122 25.236C650.122 27.168 650.689 28.686 651.824 29.79C652.958 30.8633 654.553 31.4 656.608 31.4ZM671.904 36L676.78 11.436H682.254L680.874 18.428L680.368 16.404C681.503 14.4107 682.944 13.046 684.692 12.31C686.44 11.5433 688.572 11.16 691.086 11.16L690.028 16.634C689.783 16.5727 689.553 16.542 689.338 16.542C689.124 16.5113 688.878 16.496 688.602 16.496C686.364 16.496 684.508 17.094 683.036 18.29C681.564 19.4553 680.583 21.326 680.092 23.902L677.654 36H671.904ZM689.156 36L694.032 11.436H699.782L694.906 36H689.156ZM698.218 7.388C697.175 7.388 696.332 7.08133 695.688 6.468C695.075 5.824 694.768 5.05733 694.768 4.168C694.768 3.12533 695.121 2.25133 695.826 1.546C696.562 0.840666 697.513 0.487999 698.678 0.487999C699.69 0.487999 700.518 0.794666 701.162 1.408C701.806 1.99066 702.128 2.71133 702.128 3.57C702.128 4.70466 701.775 5.62466 701.07 6.33C700.365 7.03533 699.414 7.388 698.218 7.388ZM709.813 36.322C708.218 36.322 706.838 35.9847 705.673 35.31C704.538 34.6047 703.71 33.6233 703.189 32.366C702.698 31.078 702.621 29.56 702.959 27.812L707.329 6.008H713.079L708.709 27.766C708.525 28.9007 708.647 29.8207 709.077 30.526C709.506 31.2313 710.319 31.584 711.515 31.584C712.067 31.584 712.619 31.5073 713.171 31.354C713.753 31.17 714.275 30.9247 714.735 30.618L715.747 34.85C714.888 35.402 713.937 35.7853 712.895 36C711.852 36.2147 710.825 36.322 709.813 36.322ZM701.303 16.22L702.223 11.62H718.553L717.633 16.22H701.303ZM736.531 11.16C738.647 11.16 740.426 11.5893 741.867 12.448C743.339 13.3067 744.382 14.5793 744.995 16.266C745.608 17.922 745.67 19.9613 745.179 22.384L742.465 36H736.715L739.383 22.522C739.782 20.5287 739.598 18.98 738.831 17.876C738.064 16.7413 736.669 16.174 734.645 16.174C732.529 16.174 730.781 16.7567 729.401 17.922C728.021 19.0873 727.086 20.866 726.595 23.258L724.019 36H718.269L725.077 1.868H730.827L727.515 18.428L726.319 16.22C727.484 14.472 728.941 13.1993 730.689 12.402C732.468 11.574 734.415 11.16 736.531 11.16ZM783.155 11.16C785.302 11.16 787.096 11.5893 788.537 12.448C789.979 13.3067 790.991 14.5793 791.573 16.266C792.156 17.922 792.202 19.9613 791.711 22.384L788.997 36H783.247L785.961 22.522C786.36 20.498 786.191 18.934 785.455 17.83C784.719 16.726 783.385 16.174 781.453 16.174C779.46 16.174 777.819 16.7567 776.531 17.922C775.274 19.0567 774.4 20.82 773.909 23.212L771.333 36H765.583L768.297 22.522C768.696 20.498 768.527 18.934 767.791 17.83C767.055 16.726 765.721 16.174 763.789 16.174C761.796 16.174 760.155 16.7567 758.867 17.922C757.61 19.0567 756.736 20.8353 756.245 23.258L753.669 36H747.919L752.795 11.436H758.269L756.935 18.198L755.969 16.22C757.104 14.472 758.515 13.1993 760.201 12.402C761.919 11.574 763.789 11.16 765.813 11.16C767.408 11.16 768.819 11.436 770.045 11.988C771.272 12.5093 772.253 13.322 772.989 14.426C773.756 15.4993 774.201 16.8333 774.323 18.428L771.563 17.83C772.821 15.622 774.431 13.966 776.393 12.862C778.387 11.7273 780.641 11.16 783.155 11.16ZM802.877 36.322C800.73 36.322 798.722 36.0613 796.851 35.54C794.98 35.0187 793.539 34.39 792.527 33.654L794.919 29.238C795.931 29.9433 797.188 30.526 798.691 30.986C800.224 31.4153 801.819 31.63 803.475 31.63C805.376 31.63 806.772 31.3693 807.661 30.848C808.581 30.3267 809.041 29.606 809.041 28.686C809.041 28.0113 808.719 27.5053 808.075 27.168C807.431 26.8307 806.603 26.5547 805.591 26.34C804.61 26.1253 803.536 25.8953 802.371 25.65C801.236 25.4047 800.163 25.0673 799.151 24.638C798.17 24.2087 797.357 23.58 796.713 22.752C796.069 21.924 795.747 20.82 795.747 19.44C795.747 17.692 796.238 16.2047 797.219 14.978C798.2 13.7513 799.565 12.816 801.313 12.172C803.092 11.4973 805.131 11.16 807.431 11.16C809.087 11.16 810.712 11.344 812.307 11.712C813.902 12.08 815.22 12.6013 816.263 13.276L814.147 17.692C813.043 16.9867 811.847 16.496 810.559 16.22C809.302 15.944 808.075 15.806 806.879 15.806C805.008 15.806 803.613 16.0973 802.693 16.68C801.804 17.232 801.359 17.9373 801.359 18.796C801.359 19.4707 801.681 19.992 802.325 20.36C802.969 20.728 803.782 21.0347 804.763 21.28C805.775 21.4947 806.848 21.7247 807.983 21.97C809.148 22.1847 810.222 22.5067 811.203 22.936C812.215 23.3653 813.043 23.994 813.687 24.822C814.331 25.6193 814.653 26.6927 814.653 28.042C814.653 29.8207 814.147 31.3387 813.135 32.596C812.154 33.8227 810.774 34.758 808.995 35.402C807.216 36.0153 805.177 36.322 802.877 36.322Z" fill="url(#paint0_linear_83_590)"/>
<defs>
<linearGradient id="paint0_linear_83_590" x1="13.6547" y1="-13.1667" x2="860.933" y2="-18.491" gradientUnits="userSpaceOnUse">
<stop stop-color="#AE67FA"/>
<stop offset="0.973958" stop-color="#F9742D"/>
</linearGradient>
</defs>
</svg>
